<mxfile host="app.diagrams.net" modified="2024-01-21T01:26:06.467Z" agent="Mozilla/5.0 (Windows NT 10.0; Win64; x64) AppleWebKit/537.36 (KHTML, like Gecko) Chrome/120.0.0.0 Safari/537.36 Edg/120.0.0.0" etag="qnuyH71Ppsj9G2Lw5gpp" version="22.1.21" type="device">
  <diagram name="Page-1" id="jPb7cbLScDwFiG3K2yFS">
    <mxGraphModel dx="357" dy="619" grid="1" gridSize="10" guides="1" tooltips="1" connect="1" arrows="1" fold="1" page="1" pageScale="1" pageWidth="827" pageHeight="1169" math="0" shadow="0">
      <root>
        <mxCell id="0" />
        <mxCell id="1" parent="0" />
        <mxCell id="LTukGfWmtiQ3vCmrKHOS-3" value="" style="edgeStyle=orthogonalEdgeStyle;rounded=0;orthogonalLoop=1;jettySize=auto;html=1;" edge="1" parent="1" source="LTukGfWmtiQ3vCmrKHOS-1" target="LTukGfWmtiQ3vCmrKHOS-2">
          <mxGeometry relative="1" as="geometry" />
        </mxCell>
        <mxCell id="LTukGfWmtiQ3vCmrKHOS-1" value="Begin" style="ellipse;whiteSpace=wrap;html=1;" vertex="1" parent="1">
          <mxGeometry x="100" y="140" width="120" height="80" as="geometry" />
        </mxCell>
        <mxCell id="LTukGfWmtiQ3vCmrKHOS-5" value="" style="edgeStyle=orthogonalEdgeStyle;rounded=0;orthogonalLoop=1;jettySize=auto;html=1;" edge="1" parent="1" source="LTukGfWmtiQ3vCmrKHOS-2" target="LTukGfWmtiQ3vCmrKHOS-4">
          <mxGeometry relative="1" as="geometry" />
        </mxCell>
        <mxCell id="LTukGfWmtiQ3vCmrKHOS-2" value="s" style="shape=parallelogram;perimeter=parallelogramPerimeter;whiteSpace=wrap;html=1;fixedSize=1;" vertex="1" parent="1">
          <mxGeometry x="100" y="280" width="120" height="60" as="geometry" />
        </mxCell>
        <mxCell id="LTukGfWmtiQ3vCmrKHOS-8" value="" style="edgeStyle=orthogonalEdgeStyle;rounded=0;orthogonalLoop=1;jettySize=auto;html=1;" edge="1" parent="1" source="LTukGfWmtiQ3vCmrKHOS-4" target="LTukGfWmtiQ3vCmrKHOS-7">
          <mxGeometry relative="1" as="geometry" />
        </mxCell>
        <mxCell id="LTukGfWmtiQ3vCmrKHOS-4" value="n = s.size()&lt;br&gt;a = s[0] - &#39;0&#39;&lt;br&gt;b = s[4] - &#39;0&#39;&lt;br&gt;c = s[n-1]" style="whiteSpace=wrap;html=1;" vertex="1" parent="1">
          <mxGeometry x="90" y="418" width="140" height="90" as="geometry" />
        </mxCell>
        <mxCell id="LTukGfWmtiQ3vCmrKHOS-10" value="" style="edgeStyle=orthogonalEdgeStyle;rounded=0;orthogonalLoop=1;jettySize=auto;html=1;" edge="1" parent="1" source="LTukGfWmtiQ3vCmrKHOS-7" target="LTukGfWmtiQ3vCmrKHOS-9">
          <mxGeometry relative="1" as="geometry" />
        </mxCell>
        <mxCell id="LTukGfWmtiQ3vCmrKHOS-13" value="" style="edgeStyle=orthogonalEdgeStyle;rounded=0;orthogonalLoop=1;jettySize=auto;html=1;" edge="1" parent="1" source="LTukGfWmtiQ3vCmrKHOS-7" target="LTukGfWmtiQ3vCmrKHOS-12">
          <mxGeometry relative="1" as="geometry" />
        </mxCell>
        <mxCell id="LTukGfWmtiQ3vCmrKHOS-7" value="a + b = c" style="rhombus;whiteSpace=wrap;html=1;" vertex="1" parent="1">
          <mxGeometry x="120" y="593" width="80" height="80" as="geometry" />
        </mxCell>
        <mxCell id="LTukGfWmtiQ3vCmrKHOS-16" value="" style="edgeStyle=orthogonalEdgeStyle;rounded=0;orthogonalLoop=1;jettySize=auto;html=1;" edge="1" parent="1" source="LTukGfWmtiQ3vCmrKHOS-9" target="LTukGfWmtiQ3vCmrKHOS-15">
          <mxGeometry relative="1" as="geometry" />
        </mxCell>
        <mxCell id="LTukGfWmtiQ3vCmrKHOS-9" value="YES" style="whiteSpace=wrap;html=1;" vertex="1" parent="1">
          <mxGeometry x="100" y="763" width="120" height="60" as="geometry" />
        </mxCell>
        <mxCell id="LTukGfWmtiQ3vCmrKHOS-11" value="true" style="text;html=1;align=center;verticalAlign=middle;resizable=0;points=[];autosize=1;strokeColor=none;fillColor=none;" vertex="1" parent="1">
          <mxGeometry x="160" y="698" width="40" height="30" as="geometry" />
        </mxCell>
        <mxCell id="LTukGfWmtiQ3vCmrKHOS-12" value="NO" style="whiteSpace=wrap;html=1;" vertex="1" parent="1">
          <mxGeometry x="260" y="603" width="120" height="60" as="geometry" />
        </mxCell>
        <mxCell id="LTukGfWmtiQ3vCmrKHOS-14" value="false" style="text;html=1;align=center;verticalAlign=middle;resizable=0;points=[];autosize=1;strokeColor=none;fillColor=none;" vertex="1" parent="1">
          <mxGeometry x="205" y="598" width="50" height="30" as="geometry" />
        </mxCell>
        <mxCell id="LTukGfWmtiQ3vCmrKHOS-15" value="End" style="ellipse;whiteSpace=wrap;html=1;" vertex="1" parent="1">
          <mxGeometry x="100" y="890" width="120" height="80" as="geometry" />
        </mxCell>
        <mxCell id="LTukGfWmtiQ3vCmrKHOS-17" value="" style="endArrow=classic;html=1;rounded=0;entryX=1;entryY=0.5;entryDx=0;entryDy=0;exitX=0.5;exitY=1;exitDx=0;exitDy=0;" edge="1" parent="1" source="LTukGfWmtiQ3vCmrKHOS-12" target="LTukGfWmtiQ3vCmrKHOS-15">
          <mxGeometry width="50" height="50" relative="1" as="geometry">
            <mxPoint x="220" y="680" as="sourcePoint" />
            <mxPoint x="270" y="630" as="targetPoint" />
            <Array as="points">
              <mxPoint x="320" y="930" />
            </Array>
          </mxGeometry>
        </mxCell>
      </root>
    </mxGraphModel>
  </diagram>
</mxfile>
